<mxfile host="app.diagrams.net" modified="2020-06-11T06:11:45.731Z" agent="Mozilla/5.0 (Macintosh; Intel Mac OS X 10_14_6) AppleWebKit/537.36 (KHTML, like Gecko) Chrome/83.0.4103.61 Safari/537.36" etag="k0RTLdbiUz0Z_mmypEgX" version="12.8.6" type="github">
  <diagram id="C5RBs43oDa-KdzZeNtuy" name="Page-1">
    <mxGraphModel dx="1426" dy="811" grid="1" gridSize="10" guides="1" tooltips="1" connect="1" arrows="1" fold="1" page="1" pageScale="1" pageWidth="827" pageHeight="1169" math="0" shadow="0">
      <root>
        <mxCell id="WIyWlLk6GJQsqaUBKTNV-0" />
        <mxCell id="WIyWlLk6GJQsqaUBKTNV-1" parent="WIyWlLk6GJQsqaUBKTNV-0" />
        <mxCell id="Q59yL7v4hqOO_K3fvsZ5-8" style="edgeStyle=orthogonalEdgeStyle;rounded=0;orthogonalLoop=1;jettySize=auto;html=1;entryX=0.5;entryY=0;entryDx=0;entryDy=0;" edge="1" parent="WIyWlLk6GJQsqaUBKTNV-1" source="Q59yL7v4hqOO_K3fvsZ5-0" target="Q59yL7v4hqOO_K3fvsZ5-4">
          <mxGeometry relative="1" as="geometry" />
        </mxCell>
        <mxCell id="Q59yL7v4hqOO_K3fvsZ5-0" value="core-api" style="shape=module;align=left;spacingLeft=20;align=center;verticalAlign=top;" vertex="1" parent="WIyWlLk6GJQsqaUBKTNV-1">
          <mxGeometry x="160" y="70" width="100" height="50" as="geometry" />
        </mxCell>
        <mxCell id="Q59yL7v4hqOO_K3fvsZ5-1" value="ets-service" style="shape=module;align=left;spacingLeft=20;align=center;verticalAlign=top;" vertex="1" parent="WIyWlLk6GJQsqaUBKTNV-1">
          <mxGeometry x="180" y="250" width="120" height="50" as="geometry" />
        </mxCell>
        <mxCell id="Q59yL7v4hqOO_K3fvsZ5-2" value="cloud-service" style="shape=module;align=left;spacingLeft=20;align=center;verticalAlign=top;" vertex="1" parent="WIyWlLk6GJQsqaUBKTNV-1">
          <mxGeometry x="40" y="250" width="120" height="50" as="geometry" />
        </mxCell>
        <mxCell id="Q59yL7v4hqOO_K3fvsZ5-3" value="kingdom-service" style="shape=module;align=left;spacingLeft=20;align=center;verticalAlign=top;" vertex="1" parent="WIyWlLk6GJQsqaUBKTNV-1">
          <mxGeometry x="330" y="250" width="120" height="50" as="geometry" />
        </mxCell>
        <mxCell id="Q59yL7v4hqOO_K3fvsZ5-4" value="core-convert-service" style="shape=module;align=left;spacingLeft=20;align=center;verticalAlign=top;" vertex="1" parent="WIyWlLk6GJQsqaUBKTNV-1">
          <mxGeometry x="340" y="70" width="150" height="50" as="geometry" />
        </mxCell>
        <mxCell id="Q59yL7v4hqOO_K3fvsZ5-9" style="edgeStyle=orthogonalEdgeStyle;rounded=0;orthogonalLoop=1;jettySize=auto;html=1;entryX=0.5;entryY=0;entryDx=0;entryDy=0;" edge="1" parent="WIyWlLk6GJQsqaUBKTNV-1" source="Q59yL7v4hqOO_K3fvsZ5-5" target="Q59yL7v4hqOO_K3fvsZ5-4">
          <mxGeometry relative="1" as="geometry" />
        </mxCell>
        <mxCell id="Q59yL7v4hqOO_K3fvsZ5-5" value="custom-service" style="shape=module;align=left;spacingLeft=20;align=center;verticalAlign=top;" vertex="1" parent="WIyWlLk6GJQsqaUBKTNV-1">
          <mxGeometry x="560" y="70" width="130" height="50" as="geometry" />
        </mxCell>
      </root>
    </mxGraphModel>
  </diagram>
</mxfile>
